# xmcd
# Track frame offsets:
# 150
# 3578
# 9997
# 31530
# 54075
# 77768
# 95381
# 105558
# 131552
# 158477
# 179449
# 188008
# 198056
# 214278
# 222276
# 230867
# 237983
#
# Disc length: 3445 seconds
# Revision: 0
# Processed by: cddbd v1.5.1PL0 Copyright (c) Steve Scherf et al.
# Submitted via: VisiTrax 2.9.10.228 - For more info visit www.synapsa.com
#
DISCID=d00d7311
DTITLE=Hall.Melanie. - From The Bush To The Beach.
DYEAR=2004
DGENRE=Bush Poetry
TTITLE0=Intro.
TTITLE1=Runner.The.
TTITLE2=Big Jim Higgins and The Dynamite.
TTITLE3=Boko.
TTITLE4=Blind Love.
TTITLE5=Mythical Monsters Meeting.The.
TTITLE6=Bad Habits.
TTITLE7=Visit.The.
TTITLE8=Nearly Midnight.
TTITLE9=Our Legend Of The Min Min.
TTITLE10=Late Again.
TTITLE11=Prisoner In time.
TTITLE12=Wings Of Butterflies.
TTITLE13=Croc Slide.The.
TTITLE14=His New Love.
TTITLE15=Stolen Pride.
TTITLE16=Duncan.
EXTD=
EXTT0=
EXTT1=
EXTT2=
EXTT3=
EXTT4=
EXTT5=
EXTT6=
EXTT7=
EXTT8=
EXTT9=
EXTT10=
EXTT11=
EXTT12=
EXTT13=
EXTT14=
EXTT15=
EXTT16=
PLAYORDER=
